<svg xmlns="http://www.w3.org/2000/svg" viewBox="0 0 497.65 282.775"><path d="M30.653 218.456s123.72 3.937 210.47 18.91v.003l.08.01.08.01c87.13 12.56 200.902 45.38 200.902 45.38s4.05-8.92 12.137-14.65c9.264-6.57 22.023-5.05 22.023-5.05l8.342-52.67c-5.375-1.41-10.36-5.97-12.183-11.85-2.548-8.22 1.506-16.21 9.362-17.82 2.768-.57 5.275-.49 7.5.13l8.282-52.29s-9.835-4.07-17.872-16.14c-6.837-10.27-7.21-21.49-7.21-21.49s-5.416-1.6-14.86-4.22v-38.9c-23.426-6.18-28.7-26.53-29.963-34.15 0 0-106.838-13.69-198.825-13.69S29.962 13.68 29.962 13.68C28.7 21.3 23.425 41.653 0 47.833v62.516c11.813-2.14 14.717 2.38 14.717 7.79 0 4.25-4.128 12.13-14.717 11.62v62.97c22.962.64 26.533 12.77 30.653 25.72" fill="#fff"/><path d="M228.904 199.27c86.797 0 167.344 10.157 194.57 13.396 3.516-10.62 9.714-23.128 29.02-24.804v-53.33c-8.177-.896-14.718-8.868-14.718-16.388 0-8.545 5.84-14.165 14.718-13.514V51.694c-10.23-3.32-24.567-13.477-29.02-33.237C341.344 7.395 244.196 5.162 228.904 5.31c-15.29-.148-112.438 2.085-194.57 13.147-4.453 19.76-18.79 29.917-29.02 33.237v52.936c8.876-.65 14.718 4.97 14.718 13.514 0 7.52-6.54 15.492-14.717 16.388v53.33c19.306 1.676 25.503 14.184 29.02 24.804 27.226-3.24 107.772-13.396 194.57-13.396" fill="#00adef"/><path d="M424.16 170.967c-.14 0-.284-.01-.43-.03-31.153-4.298-112.49-14.297-194.7-14.297-84.59 0-163.814 9.938-193.95 14.21a3.12 3.12 0 0 1-3.532-2.655 3.124 3.124 0 0 1 2.655-3.532c30.268-4.292 109.84-14.273 194.828-14.273 82.6 0 164.28 10.04 195.56 14.356a3.126 3.126 0 0 1-.42 6.22m.02-107.026c-.14 0-.28-.01-.43-.03-31.16-4.3-112.5-14.3-194.72-14.3-84.63 0-163.87 9.945-194.01 14.22a3.124 3.124 0 0 1-3.53-2.654 3.124 3.124 0 0 1 2.66-3.532C64.41 53.35 144 43.36 229.03 43.36c82.6 0 164.287 10.042 195.575 14.36a3.126 3.126 0 0 1-.424 6.22M75.44 134.782l11.32-1.226V87.52l10.334-1.12c2.513-.27 4.264-1.05 5.248-2.34.984-1.29 1.477-2.65 1.477-4.08 0-1.21-.09-2.384-.25-3.52l-38.55 4.176c-2.52.273-4.31 1.085-5.38 2.438-1.07 1.353-1.6 2.772-1.6 4.257 0 .61.01 1.13.04 1.57.03.44.09.98.2 1.63v.09l17.15-1.86v46.04zm56.1-5.26l11.18-.907V105.35c0-1.43-.04-2.885-.12-4.363a25.82 25.82 0 0 0-.536-4.082c-.55-2.484-1.755-4.42-3.62-5.81-1.863-1.39-4.74-1.925-8.633-1.61-1.59.13-3 .382-4.23.757-1.23.377-2.31.835-3.24 1.378-.93.544-1.73 1.117-2.38 1.72a17.224 17.224 0 0 0-1.64 1.7V78.625c0-1.374-.22-2.47-.66-3.288-.43-.817-1.01-1.43-1.72-1.84a6.035 6.035 0 0 0-2.38-.755 14.022 14.022 0 0 0-2.63-.033c-.88.07-1.7.18-2.46.32-.77.14-1.21.25-1.31.31v58.16l11.19-.91v-26.73c0-1.27.73-2.39 2.18-3.36 1.45-.97 3.19-1.54 5.22-1.71 1.43-.12 2.54 0 3.33.35.8.35 1.37.88 1.73 1.59.36.71.58 1.59.66 2.63a42.08 42.08 0 0 1 .12 3.37v22.77zm30.05-11.95c-1.65-1.917-2.584-4.383-2.802-7.396l24.218-1.31a8.63 8.63 0 0 0 .124-1.12c.028-.47.055-.952.083-1.45.027-.495.04-.962.04-1.404v-1.155c0-2.31-.302-4.492-.905-6.55-.606-2.057-1.58-3.86-2.924-5.41-1.347-1.55-3.09-2.748-5.232-3.596-2.142-.84-4.75-1.18-7.826-1.02-2.362.13-4.67.64-6.92 1.53a18.132 18.132 0 0 0-6.055 3.96c-1.78 1.75-3.21 3.9-4.28 6.46-1.07 2.56-1.6 5.58-1.6 9.04 0 4.24.61 7.71 1.82 10.42s2.79 4.84 4.74 6.39c1.95 1.55 4.18 2.58 6.68 3.11a29.2 29.2 0 0 0 7.62.58c2.86-.15 5.34-.6 7.46-1.35 2.12-.74 3.75-1.59 4.9-2.53 1.38-1.06 2.06-2.2 2.06-3.41 0-.82-.35-1.86-1.07-3.11-.71-1.25-1.4-2.27-2.06-3.06-.49.47-1.04.98-1.65 1.54a12.5 12.5 0 0 1-2.14 1.56 15.29 15.29 0 0 1-2.8 1.27c-1.04.36-2.25.58-3.62.65-3.57.2-6.18-.67-7.82-2.59m-2.9-13.59c0-2.8.66-5.02 1.98-6.66 1.32-1.63 3.13-2.52 5.44-2.64 2.64-.14 4.46.59 5.48 2.18 1.02 1.6 1.53 3.72 1.53 6.36l-14.42.77zm77.7-30.11c-3.71-2.67-9.55-3.99-17.53-3.94-2.09.01-4.43.1-7.01.25a133.89 133.89 0 0 0-7.59.67v54.94l11.39-.06v-20.79l4.54-.03 9.41 15.95c1.16 1.97 2.42 3.39 3.8 4.26 1.38.87 3.08 1.3 5.12 1.29a15.843 15.843 0 0 0 3.3-.39 18.478 18.478 0 0 0 3.3-1.05l-13.61-22.7a17.75 17.75 0 0 0 3.88-2.09c1.27-.88 2.39-1.99 3.38-3.31.99-1.33 1.78-2.87 2.36-4.63.57-1.76.86-3.8.86-6.11 0-5.5-1.86-9.59-5.57-12.26M227.3 94.8c-1.9 1.63-4.5 2.46-7.8 2.476l-3.874.02V78.21a54.46 54.46 0 0 1 1.81-.176 33.64 33.64 0 0 1 2.56-.094c3.14-.017 5.61.67 7.43 2.062 1.82 1.392 2.726 3.82 2.726 7.285 0 3.356-.95 5.85-2.85 7.484m55.3 7.01c0-2.53-.28-4.75-.825-6.67-.55-1.91-1.47-3.52-2.76-4.83-1.29-1.3-2.97-2.29-5.03-2.97-2.06-.67-4.572-1.06-7.54-1.16a33.22 33.22 0 0 0-6.1.34c-1.926.3-3.63.71-5.113 1.24-1.48.53-2.65 1.15-3.5 1.87-.85.72-1.28 1.43-1.28 2.15 0 .55.24 1.39.71 2.54a12.652 12.652 0 0 0 1.85 3.15 49.97 49.97 0 0 1 5.41-2.46c1.84-.71 3.943-1.03 6.31-.95 2.53.09 4.353.59 5.48 1.5 1.124.92 1.69 2.43 1.69 4.51v1.49l-1.77-.06a24.658 24.658 0 0 0-1.94.02c-1.98.05-4.15.22-6.517.53-2.36.31-4.56.94-6.59 1.89-2.03.95-3.72 2.28-5.07 4-1.34 1.72-2.02 3.98-2.02 6.78 0 2.26.39 4.18 1.16 5.78.77 1.59 1.76 2.88 2.97 3.85a12.078 12.078 0 0 0 4.04 2.16 16.74 16.74 0 0 0 4.457.77c2.852.09 5.27-.27 7.25-1.08 1.98-.81 3.57-1.83 4.78-3.06.274 1.44.92 2.56 1.94 3.37 1.014.8 2.51 1.24 4.49 1.3.93.03 1.825-.02 2.68-.16a15.863 15.863 0 0 0 2.76-.73c-1.26-2.07-1.892-5.26-1.892-9.55V101.8zm-10.554 14c0 .44-.2.92-.62 1.43-.41.51-.97.97-1.69 1.39-.71.42-1.54.75-2.47.99a10.24 10.24 0 0 1-2.97.32c-2.09-.07-3.57-.65-4.45-1.75-.88-1.1-1.32-2.42-1.32-3.96 0-1.37.33-2.49.99-3.35.66-.86 1.51-1.53 2.55-2.02 1.04-.48 2.24-.83 3.59-1.03a39.872 39.872 0 0 1 4.08-.4 7.97 7.97 0 0 1 1.156-.04c.39.01.77.03 1.16.04v8.42zm33.62 4.35a9.22 9.22 0 0 1-3.09-2.91c-.8-1.2-1.36-2.58-1.69-4.15-.33-1.56-.49-3.22-.49-4.98 0-3.47.77-6.26 2.31-8.4 1.54-2.13 4.12-3.09 7.74-2.87 2.09.13 3.98.71 5.68 1.75 1.7 1.04 2.99 2.05 3.87 3.04.77-.89 1.4-1.88 1.9-2.98.49-1.09.74-2.03.74-2.8 0-.82-.21-1.55-.62-2.18-.41-.63-1.14-1.31-2.18-2.03-1.264-.9-2.84-1.66-4.735-2.27-1.9-.61-3.997-.99-6.3-1.13-1.81-.11-3.86.06-6.14.5s-4.44 1.37-6.47 2.79c-2.03 1.42-3.732 3.4-5.103 5.96-1.37 2.56-2.06 5.93-2.06 10.11 0 4.4.66 8 1.98 10.81 1.32 2.81 2.96 5.04 4.94 6.7 1.98 1.66 4.12 2.84 6.42 3.53 2.307.69 4.45 1.1 6.425 1.22 2.968.18 5.41 0 7.33-.55 1.92-.54 3.4-1.17 4.445-1.87.71-.5 1.18-1.01 1.4-1.52a4 4 0 0 0 .33-1.58c0-.44-.09-.94-.25-1.5a12.502 12.502 0 0 0-.66-1.73 17.526 17.526 0 0 0-.906-1.7 8.068 8.068 0 0 0-.984-1.34c-.28.31-.69.69-1.24 1.12a9.99 9.99 0 0 1-1.98 1.2c-.77.37-1.65.66-2.632.87-.99.22-2.09.29-3.295.21-1.87-.11-3.43-.54-4.693-1.27m33.818.54c-1.64-2.15-2.573-4.74-2.79-7.79l24.17 2.08c.06-.27.1-.64.13-1.1l.08-1.43c.027-.49.04-.95.04-1.4v-1.15c0-2.31-.3-4.53-.903-6.67a16.96 16.96 0 0 0-2.92-5.82c-1.344-1.74-3.083-3.18-5.22-4.32-2.14-1.15-4.74-1.86-7.81-2.12a20.516 20.516 0 0 0-6.9.56 15.122 15.122 0 0 0-6.044 3.11c-1.78 1.5-3.21 3.45-4.28 5.86-1.06 2.42-1.6 5.35-1.6 8.82 0 4.24.6 7.8 1.81 10.68 1.2 2.88 2.78 5.23 4.73 7.05a18.73 18.73 0 0 0 6.65 4.04 30.9 30.9 0 0 0 7.61 1.65c2.85.25 5.33.15 7.44-.3 2.11-.45 3.74-1.06 4.89-1.84 1.37-.87 2.06-1.91 2.06-3.12 0-.82-.36-1.91-1.07-3.27-.72-1.35-1.4-2.47-2.06-3.35-.49.4-1.04.83-1.64 1.3-.6.47-1.31.89-2.14 1.26-.82.37-1.75.66-2.79.87-1.04.22-2.25.26-3.62.15-3.56-.31-6.16-1.53-7.81-3.68m-2.88-13.98c0-2.8.66-4.93 1.97-6.39 1.32-1.45 3.13-2.08 5.43-1.88 2.63.23 4.45 1.21 5.47 2.94 1.02 1.73 1.52 3.92 1.52 6.56l-14.38-1.24zm56.72-8.99c-1.26-.68-2.75-1.29-4.47-1.81-1.72-.52-3.68-.9-5.86-1.14-2.08-.22-4.07-.18-5.98.13-1.91.32-3.59.91-5.04 1.8a10.58 10.58 0 0 0-3.48 3.42c-.87 1.39-1.31 3.08-1.31 5.06s.34 3.7 1.02 5.14a11.58 11.58 0 0 0 2.75 3.73 16.65 16.65 0 0 0 3.94 2.62 34.84 34.84 0 0 0 4.59 1.82c2.46.76 4.31 1.56 5.54 2.38 1.23.82 1.85 2.03 1.85 3.62 0 .88-.19 1.58-.58 2.08a3.778 3.778 0 0 1-1.44 1.17c-.58.27-1.25.41-2.01.44-.77.02-1.51 0-2.22-.08a14.424 14.424 0 0 1-3.36-.78 22.37 22.37 0 0 1-3.08-1.37 21.03 21.03 0 0 1-2.54-1.6 16.42 16.42 0 0 1-1.84-1.56 39.734 39.734 0 0 0-1.89 2.97c-.55.96-.82 1.91-.82 2.84 0 1.1.45 2.02 1.35 2.75.9.74 1.74 1.31 2.5 1.72 1.1.62 2.47 1.19 4.11 1.73 1.64.54 3.69.95 6.15 1.22 2.35.25 4.52.19 6.52-.2 1.99-.39 3.73-1.08 5.21-2.07a10.57 10.57 0 0 0 3.49-3.91c.84-1.61 1.27-3.52 1.27-5.72 0-2.14-.4-3.97-1.19-5.49a12.712 12.712 0 0 0-3.12-3.89 17.755 17.755 0 0 0-4.35-2.66 48.588 48.588 0 0 0-4.88-1.82c-3.99-1.32-5.99-2.91-5.99-4.78 0-.77.18-1.37.53-1.8a3.045 3.045 0 0 1 1.32-.93c.52-.19 1.11-.29 1.77-.3a15.19 15.19 0 0 1 1.89.08 13.87 13.87 0 0 1 3.2.77 24.38 24.38 0 0 1 3.12 1.38 23.44 23.44 0 0 1 2.71 1.66 24.28 24.28 0 0 1 1.97 1.53c.6-.92 1.16-1.92 1.68-2.99.52-1.07.78-2.02.78-2.84-.11-1.6-1.37-3.04-3.77-4.29" fill="#fff"/></svg>
